<svg xmlns="http://www.w3.org/2000/svg" viewBox="0 0 940 430" font-family="Segoe UI, Arial, sans-serif">
  <defs>
    <marker id="fla" viewBox="0 0 10 10" refX="9" refY="5" markerWidth="6" markerHeight="6" orient="auto-start-reverse">
      <path d="M0,0 L10,5 L0,10 z" fill="#666"/>
    </marker>
    <pattern id="hatch" width="7" height="7" patternTransform="rotate(45)" patternUnits="userSpaceOnUse">
      <line x1="0" y1="0" x2="0" y2="7" stroke="#8a857c" stroke-width="1.2"/>
    </pattern>
  </defs>
  <rect width="940" height="430" fill="#ffffff"/>
  <text x="470" y="30" font-size="15" text-anchor="middle" fill="#222" font-weight="bold">Longitud efectiva L_c = K·L : los apoyos deciden cuánto cuenta para el pandeo</text>

  <!-- 4 cases; each column top y=80, base y=300 -->
  <!-- helper: L dim on far right -->
  <line x1="892" y1="80" x2="892" y2="300" stroke="#bbb" stroke-width="1" marker-start="url(#fla)" marker-end="url(#fla)"/>
  <text x="884" y="195" font-size="12" fill="#888" text-anchor="end">L</text>

  <!-- ===== Case 1: pinned-pinned K=1.0 ===== -->
  <g>
    <text x="150" y="66" font-size="12.5" text-anchor="middle" fill="#333" font-weight="bold">Rótula–Rótula</text>
    <!-- load -->
    <line x1="150" y1="58" x2="150" y2="74" stroke="#666" stroke-width="2" marker-end="url(#fla)"/>
    <!-- reference axis -->
    <line x1="150" y1="80" x2="150" y2="300" stroke="#ddd" stroke-width="1.5" stroke-dasharray="3 3"/>
    <!-- buckled half-sine -->
    <path d="M150,80 C 198,150 198,230 150,300" fill="none" stroke="#1a63a8" stroke-width="3"/>
    <!-- pins top & bottom (triangles) -->
    <polygon points="150,80 142,66 158,66" fill="#5b6470"/>
    <polygon points="150,300 140,314 160,314" fill="#5b6470"/>
    <line x1="134" y1="314" x2="166" y2="314" stroke="#333" stroke-width="2"/>
    <text x="150" y="344" font-size="15" fill="#1c7c3c" text-anchor="middle" font-weight="bold">K = 1.0</text>
    <text x="150" y="366" font-size="12" fill="#333" text-anchor="middle">L_c = L</text>
    <text x="150" y="392" font-size="10.5" fill="#555" text-anchor="middle">caso de referencia</text>
  </g>

  <!-- ===== Case 2: fixed-fixed K=0.5 ===== -->
  <g>
    <text x="370" y="66" font-size="12.5" text-anchor="middle" fill="#333" font-weight="bold">Empotr.–Empotr.</text>
    <line x1="370" y1="58" x2="370" y2="74" stroke="#666" stroke-width="2" marker-end="url(#fla)"/>
    <line x1="370" y1="80" x2="370" y2="300" stroke="#ddd" stroke-width="1.5" stroke-dasharray="3 3"/>
    <!-- S-shape with inflection points (straight tangents at ends) -->
    <path d="M370,80 C 370,120 398,130 398,190 C 398,250 342,260 342,300" fill="none" stroke="#1a63a8" stroke-width="3"/>
    <!-- fixed top -->
    <rect x="344" y="66" width="52" height="10" fill="url(#hatch)" stroke="#8a857c" stroke-width="1"/>
    <!-- fixed base -->
    <rect x="344" y="300" width="52" height="10" fill="url(#hatch)" stroke="#8a857c" stroke-width="1"/>
    <!-- inflection markers -->
    <circle cx="392" cy="135" r="3" fill="#b02a1a"/>
    <circle cx="348" cy="245" r="3" fill="#b02a1a"/>
    <text x="370" y="344" font-size="15" fill="#1c7c3c" text-anchor="middle" font-weight="bold">K = 0.5</text>
    <text x="370" y="366" font-size="12" fill="#333" text-anchor="middle">L_c = 0.5 L</text>
    <text x="370" y="392" font-size="10.5" fill="#b02a1a" text-anchor="middle">el más estable</text>
  </g>

  <!-- ===== Case 3: fixed-pinned K=0.7 ===== -->
  <g>
    <text x="590" y="66" font-size="12.5" text-anchor="middle" fill="#333" font-weight="bold">Empotr.–Rótula</text>
    <line x1="590" y1="58" x2="590" y2="74" stroke="#666" stroke-width="2" marker-end="url(#fla)"/>
    <line x1="590" y1="80" x2="590" y2="300" stroke="#ddd" stroke-width="1.5" stroke-dasharray="3 3"/>
    <path d="M590,80 C 626,150 622,255 590,300" fill="none" stroke="#1a63a8" stroke-width="3"/>
    <!-- pin top -->
    <polygon points="590,80 582,66 598,66" fill="#5b6470"/>
    <!-- fixed base -->
    <rect x="564" y="300" width="52" height="10" fill="url(#hatch)" stroke="#8a857c" stroke-width="1"/>
    <circle cx="617" cy="200" r="3" fill="#b02a1a"/>
    <text x="590" y="344" font-size="15" fill="#1c7c3c" text-anchor="middle" font-weight="bold">K = 0.7</text>
    <text x="590" y="366" font-size="12" fill="#333" text-anchor="middle">L_c = 0.7 L  (0.8 diseño)</text>
    <text x="590" y="392" font-size="10.5" fill="#555" text-anchor="middle">un punto de inflexión</text>
  </g>

  <!-- ===== Case 4: fixed-free K=2.0 ===== -->
  <g>
    <text x="810" y="66" font-size="12.5" text-anchor="middle" fill="#333" font-weight="bold">Empotr.–Libre</text>
    <line x1="810" y1="58" x2="810" y2="74" stroke="#666" stroke-width="2" marker-end="url(#fla)"/>
    <line x1="810" y1="80" x2="810" y2="300" stroke="#ddd" stroke-width="1.5" stroke-dasharray="3 3"/>
    <!-- quarter sine cantilever -->
    <path d="M810,300 C 810,220 840,150 862,82" fill="none" stroke="#1a63a8" stroke-width="3"/>
    <!-- free top: nothing. fixed base -->
    <rect x="784" y="300" width="52" height="10" fill="url(#hatch)" stroke="#8a857c" stroke-width="1"/>
    <text x="810" y="344" font-size="15" fill="#b02a1a" text-anchor="middle" font-weight="bold">K = 2.0</text>
    <text x="810" y="366" font-size="12" fill="#333" text-anchor="middle">L_c = 2 L</text>
    <text x="810" y="392" font-size="10.5" fill="#b02a1a" text-anchor="middle">poste en voladizo: el peor</text>
  </g>

  <!-- takeaway -->
  <text x="470" y="420" font-size="12.5" text-anchor="middle" fill="#333">Empotrar los extremos acorta L_c (baja K) y sube F_n; un extremo libre lo dispara. La misma columna, cuatro resistencias distintas.</text>
</svg>
