<svg xmlns="http://www.w3.org/2000/svg" viewBox="0 0 680 340" font-family="Segoe UI, Arial, sans-serif">
<rect width="680" height="340" fill="#ffffff"/>
<defs><marker id="a2" viewBox="0 0 10 10" refX="9" refY="5" markerWidth="7" markerHeight="7" orient="auto-start-reverse"><path d="M0,0 L10,5 L0,10 z" fill="#b02a1a"/></marker>
<marker id="a2b" viewBox="0 0 10 10" refX="9" refY="5" markerWidth="6" markerHeight="6" orient="auto-start-reverse"><path d="M0,0 L10,5 L0,10 z" fill="#555"/></marker></defs>
<text x="170" y="24" font-size="13.5" text-anchor="middle" fill="#222" font-weight="bold">El portico se abre (peso propio)</text>
<text x="510" y="24" font-size="13.5" text-anchor="middle" fill="#222" font-weight="bold">Peso propio: dos alcances</text>
<line x1="70" y1="270" x2="70" y2="180" stroke="#bbb" stroke-width="2" stroke-dasharray="5 3"/>
<line x1="250" y1="270" x2="250" y2="180" stroke="#bbb" stroke-width="2" stroke-dasharray="5 3"/>
<line x1="70" y1="180" x2="160" y2="140" stroke="#bbb" stroke-width="2" stroke-dasharray="5 3"/>
<line x1="250" y1="180" x2="160" y2="140" stroke="#bbb" stroke-width="2" stroke-dasharray="5 3"/>
<line x1="70" y1="270" x2="58" y2="182" stroke="#b02a1a" stroke-width="2.6"/>
<line x1="250" y1="270" x2="262" y2="182" stroke="#b02a1a" stroke-width="2.6"/>
<line x1="58" y1="182" x2="160" y2="150" stroke="#b02a1a" stroke-width="2.6"/>
<line x1="262" y1="182" x2="160" y2="150" stroke="#b02a1a" stroke-width="2.6"/>
<line x1="46" y1="270" x2="66" y2="270" stroke="#b02a1a" stroke-width="2.2" marker-end="url(#a2)"/>
<line x1="274" y1="270" x2="254" y2="270" stroke="#b02a1a" stroke-width="2.2" marker-end="url(#a2)"/>
<text x="160" y="300" font-size="10.5" text-anchor="middle" fill="#b02a1a">empuje en las bases</text>
<text x="160" y="316" font-size="10.5" text-anchor="middle" fill="#333">alero abre ±0,18 mm · marco central −0,29 mm</text>
<path d="M63,277 L77,277 L70,270 z" fill="#333"/>
<path d="M243,277 L257,277 L250,270 z" fill="#333"/>
<text x="510" y="52" font-size="11.5" text-anchor="middle" fill="#2f7d32" font-weight="bold">distribuido (carga de barra)</text>
<line x1="410" y1="70" x2="610" y2="70" stroke="#333" stroke-width="2.5"/>
<line x1="415" y1="56" x2="415" y2="68" stroke="#555" stroke-width="1.3" marker-end="url(#a2b)"/>
<line x1="437" y1="56" x2="437" y2="68" stroke="#555" stroke-width="1.3" marker-end="url(#a2b)"/>
<line x1="459" y1="56" x2="459" y2="68" stroke="#555" stroke-width="1.3" marker-end="url(#a2b)"/>
<line x1="481" y1="56" x2="481" y2="68" stroke="#555" stroke-width="1.3" marker-end="url(#a2b)"/>
<line x1="503" y1="56" x2="503" y2="68" stroke="#555" stroke-width="1.3" marker-end="url(#a2b)"/>
<line x1="525" y1="56" x2="525" y2="68" stroke="#555" stroke-width="1.3" marker-end="url(#a2b)"/>
<line x1="547" y1="56" x2="547" y2="68" stroke="#555" stroke-width="1.3" marker-end="url(#a2b)"/>
<line x1="569" y1="56" x2="569" y2="68" stroke="#555" stroke-width="1.3" marker-end="url(#a2b)"/>
<line x1="591" y1="56" x2="591" y2="68" stroke="#555" stroke-width="1.3" marker-end="url(#a2b)"/>
<path d="M410,92 Q510,140 610,92 L610,92 Z" fill="#2f7d3222" stroke="#2f7d32" stroke-width="2"/>
<text x="510" y="128" font-size="10.5" text-anchor="middle" fill="#2f7d32">M = wL²/8  (la barra flecta bajo su peso)</text>
<text x="510" y="196" font-size="11.5" text-anchor="middle" fill="#b02a1a" font-weight="bold">concentrado en los nudos</text>
<line x1="410" y1="214" x2="610" y2="214" stroke="#333" stroke-width="2.5"/>
<line x1="410" y1="196" x2="410" y2="212" stroke="#555" stroke-width="1.6" marker-end="url(#a2b)"/>
<line x1="610" y1="196" x2="610" y2="212" stroke="#555" stroke-width="1.6" marker-end="url(#a2b)"/>
<circle cx="410" cy="214" r="3.5" fill="#b02a1a"/><circle cx="610" cy="214" r="3.5" fill="#b02a1a"/>
<line x1="410" y1="236" x2="610" y2="236" stroke="#b02a1a" stroke-width="2"/>
<text x="510" y="256" font-size="10.5" text-anchor="middle" fill="#b02a1a">M ≈ 0  (se pierde la flexion de la barra)</text>
<text x="510" y="300" font-size="10" text-anchor="middle" fill="#777">reacciones y masa: iguales · esfuerzos de barra: solo el distribuido</text>
<line x1="340" y1="40" x2="340" y2="320" stroke="#e2e2e2"/>
</svg>