<svg xmlns="http://www.w3.org/2000/svg" viewBox="0 0 560 340" font-family="Segoe UI, Arial, sans-serif">
<rect width="560" height="340" fill="#ffffff"/>
<text x="280" y="24" font-size="14.5" text-anchor="middle" fill="#222" font-weight="bold">Galpon a dos aguas · 3 marcos</text>
<line x1="250.0" y1="250.0" x2="250.0" y2="211.0" stroke="#555" stroke-width="2.4"/>
<line x1="317.5" y1="289.0" x2="317.5" y2="250.0" stroke="#555" stroke-width="2.4"/>
<line x1="182.5" y1="289.0" x2="182.5" y2="250.0" stroke="#555" stroke-width="2.4"/>
<line x1="250.0" y1="328.0" x2="250.0" y2="289.0" stroke="#555" stroke-width="2.4"/>
<line x1="114.9" y1="328.0" x2="114.9" y2="289.0" stroke="#555" stroke-width="2.4"/>
<line x1="182.5" y1="367.0" x2="182.5" y2="328.0" stroke="#555" stroke-width="2.4"/>
<line x1="250.0" y1="211.0" x2="283.8" y2="217.5" stroke="#b02a1a" stroke-width="2.6"/>
<line x1="317.5" y1="250.0" x2="283.8" y2="217.5" stroke="#b02a1a" stroke-width="2.6"/>
<line x1="182.5" y1="250.0" x2="216.2" y2="256.5" stroke="#b02a1a" stroke-width="2.6"/>
<line x1="250.0" y1="289.0" x2="216.2" y2="256.5" stroke="#b02a1a" stroke-width="2.6"/>
<line x1="114.9" y1="289.0" x2="148.7" y2="295.5" stroke="#b02a1a" stroke-width="2.6"/>
<line x1="182.5" y1="328.0" x2="148.7" y2="295.5" stroke="#b02a1a" stroke-width="2.6"/>
<line x1="283.8" y1="217.5" x2="216.2" y2="256.5" stroke="#555" stroke-width="2.0"/>
<line x1="216.2" y1="256.5" x2="148.7" y2="295.5" stroke="#555" stroke-width="2.0"/>
<line x1="250.0" y1="211.0" x2="182.5" y2="250.0" stroke="#555" stroke-width="2.0"/>
<line x1="182.5" y1="250.0" x2="114.9" y2="289.0" stroke="#555" stroke-width="2.0"/>
<line x1="317.5" y1="250.0" x2="250.0" y2="289.0" stroke="#555" stroke-width="2.0"/>
<line x1="250.0" y1="289.0" x2="182.5" y2="328.0" stroke="#555" stroke-width="2.0"/>
<line x1="250.0" y1="211.0" x2="216.2" y2="256.5" stroke="#2f7d32" stroke-width="1.6"/>
<line x1="182.5" y1="250.0" x2="148.7" y2="295.5" stroke="#2f7d32" stroke-width="1.6"/>
<line x1="317.5" y1="250.0" x2="216.2" y2="256.5" stroke="#2f7d32" stroke-width="1.6"/>
<line x1="250.0" y1="289.0" x2="148.7" y2="295.5" stroke="#2f7d32" stroke-width="1.6"/>
<line x1="250.0" y1="250.0" x2="216.2" y2="250.0" stroke="#1a63a8" stroke-width="1.8"/>
<line x1="216.2" y1="250.0" x2="182.5" y2="250.0" stroke="#1a63a8" stroke-width="1.8"/>
<line x1="182.5" y1="289.0" x2="216.2" y2="250.0" stroke="#1a63a8" stroke-width="1.8"/>
<line x1="216.2" y1="250.0" x2="250.0" y2="211.0" stroke="#1a63a8" stroke-width="1.8"/>
<line x1="317.5" y1="289.0" x2="283.8" y2="289.0" stroke="#1a63a8" stroke-width="1.8"/>
<line x1="283.8" y1="289.0" x2="250.0" y2="289.0" stroke="#1a63a8" stroke-width="1.8"/>
<line x1="250.0" y1="328.0" x2="283.8" y2="289.0" stroke="#1a63a8" stroke-width="1.8"/>
<line x1="283.8" y1="289.0" x2="317.5" y2="250.0" stroke="#1a63a8" stroke-width="1.8"/>
<circle cx="250.0" cy="250.0" r="3" fill="#333"/>
<circle cx="317.5" cy="289.0" r="3" fill="#333"/>
<circle cx="182.5" cy="289.0" r="3" fill="#333"/>
<circle cx="250.0" cy="328.0" r="3" fill="#333"/>
<circle cx="114.9" cy="328.0" r="3" fill="#333"/>
<circle cx="182.5" cy="367.0" r="3" fill="#333"/>
<line x1="360" y1="285" x2="385" y2="285" stroke="#b02a1a" stroke-width="2.6"/><text x="390" y="289" font-size="10.5" fill="#333">marco a momento (transversal)</text>
<line x1="360" y1="302" x2="385" y2="302" stroke="#1a63a8" stroke-width="2"/><text x="390" y="306" font-size="10.5" fill="#333">arriostramiento de muro (longitud.)</text>
<line x1="360" y1="319" x2="385" y2="319" stroke="#2f7d32" stroke-width="1.8"/><text x="390" y="323" font-size="10.5" fill="#333">diafragma de techo</text>
<text x="60" y="315" font-size="10.5" fill="#777">luz 6 m · alero 3 m · cumbrera 4 m · largo 12 m (3 marcos)</text>
</svg>