<svg xmlns="http://www.w3.org/2000/svg" viewBox="0 0 760 300" font-family="ui-sans-serif, system-ui, -apple-system, sans-serif">
  <defs>
    <marker id="am" viewBox="0 0 10 10" refX="9" refY="5" markerWidth="6" markerHeight="6" orient="auto-start-reverse">
      <path d="M0,0 L10,5 L0,10 Z" fill="#6b7280"/>
    </marker>
  </defs>
  <rect width="760" height="300" fill="#ffffff"/>

  <!-- ═══ Panel 1: iteración 0 ═══ -->
  <text x="130" y="36" text-anchor="middle" font-size="12.5" font-weight="600" fill="#1a1a1a">Iteración 0</text>
  <text x="130" y="52" text-anchor="middle" font-size="10.5" fill="#6b7280">solución lineal completa</text>
  <rect x="40" y="70" width="67.5" height="180" fill="#dc2626" fill-opacity="0.15"/>
  <rect x="107.5" y="70" width="112.5" height="180" fill="#2563eb" fill-opacity="0.12"/>
  <g stroke="#e9ecef" stroke-width="1">
    <line x1="62.5" y1="70" x2="62.5" y2="250"/><line x1="85" y1="70" x2="85" y2="250"/>
    <line x1="107.5" y1="70" x2="107.5" y2="250"/><line x1="130" y1="70" x2="130" y2="250"/>
    <line x1="152.5" y1="70" x2="152.5" y2="250"/><line x1="175" y1="70" x2="175" y2="250"/>
    <line x1="197.5" y1="70" x2="197.5" y2="250"/>
    <line x1="40" y1="92.5" x2="220" y2="92.5"/><line x1="40" y1="115" x2="220" y2="115"/>
    <line x1="40" y1="137.5" x2="220" y2="137.5"/><line x1="40" y1="160" x2="220" y2="160"/>
    <line x1="40" y1="182.5" x2="220" y2="182.5"/><line x1="40" y1="205" x2="220" y2="205"/>
    <line x1="40" y1="227.5" x2="220" y2="227.5"/>
  </g>
  <rect x="40" y="70" width="180" height="180" fill="none" stroke="#1a1a1a" stroke-width="1.3"/>
  <circle cx="175" cy="160" r="4" fill="#dc2626"/>
  <text x="182" y="154" font-size="10.5" font-style="italic" fill="#dc2626">N</text>
  <text x="130" y="272" text-anchor="middle" font-size="10.5" fill="#6b7280">aparecen tracciones (rojo)</text>

  <line x1="234" y1="160" x2="280" y2="160" stroke="#9ca3af" stroke-width="1.5" marker-end="url(#am)"/>

  <!-- ═══ Panel 2: iteración 1 ═══ -->
  <text x="380" y="36" text-anchor="middle" font-size="12.5" font-weight="600" fill="#1a1a1a">Iteración 1</text>
  <text x="380" y="52" text-anchor="middle" font-size="10.5" fill="#6b7280">celdas eliminadas del conjunto activo</text>
  <rect x="290" y="70" width="67.5" height="180" fill="#f3f4f6"/>
  <rect x="357.5" y="70" width="22.5" height="180" fill="#dc2626" fill-opacity="0.15"/>
  <rect x="380" y="70" width="90" height="180" fill="#2563eb" fill-opacity="0.12"/>
  <g stroke="#e9ecef" stroke-width="1">
    <line x1="312.5" y1="70" x2="312.5" y2="250"/><line x1="335" y1="70" x2="335" y2="250"/>
    <line x1="357.5" y1="70" x2="357.5" y2="250"/><line x1="380" y1="70" x2="380" y2="250"/>
    <line x1="402.5" y1="70" x2="402.5" y2="250"/><line x1="425" y1="70" x2="425" y2="250"/>
    <line x1="447.5" y1="70" x2="447.5" y2="250"/>
    <line x1="290" y1="92.5" x2="470" y2="92.5"/><line x1="290" y1="115" x2="470" y2="115"/>
    <line x1="290" y1="137.5" x2="470" y2="137.5"/><line x1="290" y1="160" x2="470" y2="160"/>
    <line x1="290" y1="182.5" x2="470" y2="182.5"/><line x1="290" y1="205" x2="470" y2="205"/>
    <line x1="290" y1="227.5" x2="470" y2="227.5"/>
  </g>
  <rect x="290" y="70" width="180" height="180" fill="none" stroke="#1a1a1a" stroke-width="1.3"/>
  <circle cx="425" cy="160" r="4" fill="#dc2626"/>
  <text x="380" y="272" text-anchor="middle" font-size="10.5" fill="#6b7280">se recalcula con 𝒜 reducido</text>

  <line x1="484" y1="160" x2="530" y2="160" stroke="#9ca3af" stroke-width="1.5" marker-end="url(#am)"/>

  <!-- ═══ Panel 3: convergencia ═══ -->
  <text x="630" y="36" text-anchor="middle" font-size="12.5" font-weight="600" fill="#1a1a1a">Convergencia</text>
  <text x="630" y="52" text-anchor="middle" font-size="10.5" fill="#6b7280">todas las presiones ≥ 0</text>
  <rect x="540" y="70" width="90" height="180" fill="#f3f4f6"/>
  <rect x="630" y="70" width="22.5" height="180" fill="#2563eb" fill-opacity="0.08"/>
  <rect x="652.5" y="70" width="22.5" height="180" fill="#2563eb" fill-opacity="0.16"/>
  <rect x="675" y="70" width="22.5" height="180" fill="#2563eb" fill-opacity="0.26"/>
  <rect x="697.5" y="70" width="22.5" height="180" fill="#2563eb" fill-opacity="0.36"/>
  <g stroke="#e9ecef" stroke-width="1">
    <line x1="562.5" y1="70" x2="562.5" y2="250"/><line x1="585" y1="70" x2="585" y2="250"/>
    <line x1="607.5" y1="70" x2="607.5" y2="250"/><line x1="630" y1="70" x2="630" y2="250"/>
    <line x1="652.5" y1="70" x2="652.5" y2="250"/><line x1="675" y1="70" x2="675" y2="250"/>
    <line x1="697.5" y1="70" x2="697.5" y2="250"/>
    <line x1="540" y1="92.5" x2="720" y2="92.5"/><line x1="540" y1="115" x2="720" y2="115"/>
    <line x1="540" y1="137.5" x2="720" y2="137.5"/><line x1="540" y1="160" x2="720" y2="160"/>
    <line x1="540" y1="182.5" x2="720" y2="182.5"/><line x1="540" y1="205" x2="720" y2="205"/>
    <line x1="540" y1="227.5" x2="720" y2="227.5"/>
  </g>
  <line x1="630" y1="62" x2="630" y2="258" stroke="#2563eb" stroke-width="1.3" stroke-dasharray="5 4"/>
  <rect x="540" y="70" width="180" height="180" fill="none" stroke="#1a1a1a" stroke-width="1.3"/>
  <circle cx="675" cy="160" r="4" fill="#dc2626"/>
  <text x="630" y="272" text-anchor="middle" font-size="10.5" fill="#6b7280">zona de contacto final, <tspan font-style="italic">q</tspan><tspan font-size="8" dy="2">i</tspan><tspan dy="-2"> ≥ 0 ✓</tspan></text>
</svg>
