<svg xmlns="http://www.w3.org/2000/svg" viewBox="0 0 780 470" font-family="ui-sans-serif,system-ui,sans-serif">
<rect width="780" height="470" fill="#faf9f5"/>
<line x1="70" y1="405" x2="345" y2="405" stroke="#33322e" stroke-width="2.5"/>
<line x1="72" y1="405" x2="63" y2="416" stroke="#6f6d67" stroke-width="1.3"/>
<line x1="84" y1="405" x2="75" y2="416" stroke="#6f6d67" stroke-width="1.3"/>
<line x1="96" y1="405" x2="87" y2="416" stroke="#6f6d67" stroke-width="1.3"/>
<line x1="108" y1="405" x2="99" y2="416" stroke="#6f6d67" stroke-width="1.3"/>
<line x1="120" y1="405" x2="111" y2="416" stroke="#6f6d67" stroke-width="1.3"/>
<line x1="132" y1="405" x2="123" y2="416" stroke="#6f6d67" stroke-width="1.3"/>
<line x1="144" y1="405" x2="135" y2="416" stroke="#6f6d67" stroke-width="1.3"/>
<line x1="156" y1="405" x2="147" y2="416" stroke="#6f6d67" stroke-width="1.3"/>
<line x1="168" y1="405" x2="159" y2="416" stroke="#6f6d67" stroke-width="1.3"/>
<line x1="180" y1="405" x2="171" y2="416" stroke="#6f6d67" stroke-width="1.3"/>
<line x1="192" y1="405" x2="183" y2="416" stroke="#6f6d67" stroke-width="1.3"/>
<line x1="204" y1="405" x2="195" y2="416" stroke="#6f6d67" stroke-width="1.3"/>
<line x1="216" y1="405" x2="207" y2="416" stroke="#6f6d67" stroke-width="1.3"/>
<line x1="228" y1="405" x2="219" y2="416" stroke="#6f6d67" stroke-width="1.3"/>
<line x1="240" y1="405" x2="231" y2="416" stroke="#6f6d67" stroke-width="1.3"/>
<line x1="252" y1="405" x2="243" y2="416" stroke="#6f6d67" stroke-width="1.3"/>
<line x1="264" y1="405" x2="255" y2="416" stroke="#6f6d67" stroke-width="1.3"/>
<line x1="276" y1="405" x2="267" y2="416" stroke="#6f6d67" stroke-width="1.3"/>
<line x1="288" y1="405" x2="279" y2="416" stroke="#6f6d67" stroke-width="1.3"/>
<line x1="300" y1="405" x2="291" y2="416" stroke="#6f6d67" stroke-width="1.3"/>
<line x1="312" y1="405" x2="303" y2="416" stroke="#6f6d67" stroke-width="1.3"/>
<line x1="324" y1="405" x2="315" y2="416" stroke="#6f6d67" stroke-width="1.3"/>
<line x1="336" y1="405" x2="327" y2="416" stroke="#6f6d67" stroke-width="1.3"/>
<line x1="95" y1="405" x2="95" y2="85" stroke="#33322e" stroke-width="4.5"/>
<line x1="320" y1="405" x2="320" y2="85" stroke="#33322e" stroke-width="4.5"/>
<line x1="95" y1="365" x2="320" y2="365" stroke="#33322e" stroke-width="2.6"/>
<rect x="123.5" y="353" width="18" height="12" rx="1.5" fill="#b8b6ad" stroke="#6f6d67" stroke-width="0.8"/>
<rect x="161.0" y="353" width="18" height="12" rx="1.5" fill="#b8b6ad" stroke="#6f6d67" stroke-width="0.8"/>
<rect x="198.5" y="353" width="18" height="12" rx="1.5" fill="#b8b6ad" stroke="#6f6d67" stroke-width="0.8"/>
<rect x="236.0" y="353" width="18" height="12" rx="1.5" fill="#b8b6ad" stroke="#6f6d67" stroke-width="0.8"/>
<rect x="273.5" y="353" width="18" height="12" rx="1.5" fill="#b8b6ad" stroke="#6f6d67" stroke-width="0.8"/>
<line x1="95" y1="325" x2="320" y2="325" stroke="#33322e" stroke-width="2.6"/>
<rect x="123.5" y="313" width="18" height="12" rx="1.5" fill="#b8b6ad" stroke="#6f6d67" stroke-width="0.8"/>
<rect x="161.0" y="313" width="18" height="12" rx="1.5" fill="#b8b6ad" stroke="#6f6d67" stroke-width="0.8"/>
<rect x="198.5" y="313" width="18" height="12" rx="1.5" fill="#b8b6ad" stroke="#6f6d67" stroke-width="0.8"/>
<rect x="236.0" y="313" width="18" height="12" rx="1.5" fill="#b8b6ad" stroke="#6f6d67" stroke-width="0.8"/>
<rect x="273.5" y="313" width="18" height="12" rx="1.5" fill="#b8b6ad" stroke="#6f6d67" stroke-width="0.8"/>
<line x1="95" y1="285" x2="320" y2="285" stroke="#33322e" stroke-width="2.6"/>
<rect x="123.5" y="273" width="18" height="12" rx="1.5" fill="#b8b6ad" stroke="#6f6d67" stroke-width="0.8"/>
<rect x="161.0" y="273" width="18" height="12" rx="1.5" fill="#b8b6ad" stroke="#6f6d67" stroke-width="0.8"/>
<rect x="198.5" y="273" width="18" height="12" rx="1.5" fill="#b8b6ad" stroke="#6f6d67" stroke-width="0.8"/>
<rect x="236.0" y="273" width="18" height="12" rx="1.5" fill="#b8b6ad" stroke="#6f6d67" stroke-width="0.8"/>
<rect x="273.5" y="273" width="18" height="12" rx="1.5" fill="#b8b6ad" stroke="#6f6d67" stroke-width="0.8"/>
<line x1="95" y1="245" x2="320" y2="245" stroke="#33322e" stroke-width="2.6"/>
<rect x="123.5" y="233" width="18" height="12" rx="1.5" fill="#b8b6ad" stroke="#6f6d67" stroke-width="0.8"/>
<rect x="161.0" y="233" width="18" height="12" rx="1.5" fill="#b8b6ad" stroke="#6f6d67" stroke-width="0.8"/>
<rect x="198.5" y="233" width="18" height="12" rx="1.5" fill="#b8b6ad" stroke="#6f6d67" stroke-width="0.8"/>
<rect x="236.0" y="233" width="18" height="12" rx="1.5" fill="#b8b6ad" stroke="#6f6d67" stroke-width="0.8"/>
<rect x="273.5" y="233" width="18" height="12" rx="1.5" fill="#b8b6ad" stroke="#6f6d67" stroke-width="0.8"/>
<line x1="95" y1="205" x2="320" y2="205" stroke="#33322e" stroke-width="2.6"/>
<rect x="123.5" y="193" width="18" height="12" rx="1.5" fill="#b8b6ad" stroke="#6f6d67" stroke-width="0.8"/>
<rect x="161.0" y="193" width="18" height="12" rx="1.5" fill="#b8b6ad" stroke="#6f6d67" stroke-width="0.8"/>
<rect x="198.5" y="193" width="18" height="12" rx="1.5" fill="#b8b6ad" stroke="#6f6d67" stroke-width="0.8"/>
<rect x="236.0" y="193" width="18" height="12" rx="1.5" fill="#b8b6ad" stroke="#6f6d67" stroke-width="0.8"/>
<rect x="273.5" y="193" width="18" height="12" rx="1.5" fill="#b8b6ad" stroke="#6f6d67" stroke-width="0.8"/>
<line x1="95" y1="165" x2="320" y2="165" stroke="#33322e" stroke-width="2.6"/>
<rect x="123.5" y="153" width="18" height="12" rx="1.5" fill="#b8b6ad" stroke="#6f6d67" stroke-width="0.8"/>
<rect x="161.0" y="153" width="18" height="12" rx="1.5" fill="#b8b6ad" stroke="#6f6d67" stroke-width="0.8"/>
<rect x="198.5" y="153" width="18" height="12" rx="1.5" fill="#b8b6ad" stroke="#6f6d67" stroke-width="0.8"/>
<rect x="236.0" y="153" width="18" height="12" rx="1.5" fill="#b8b6ad" stroke="#6f6d67" stroke-width="0.8"/>
<rect x="273.5" y="153" width="18" height="12" rx="1.5" fill="#b8b6ad" stroke="#6f6d67" stroke-width="0.8"/>
<line x1="95" y1="125" x2="320" y2="125" stroke="#33322e" stroke-width="2.6"/>
<rect x="123.5" y="113" width="18" height="12" rx="1.5" fill="#b8b6ad" stroke="#6f6d67" stroke-width="0.8"/>
<rect x="161.0" y="113" width="18" height="12" rx="1.5" fill="#b8b6ad" stroke="#6f6d67" stroke-width="0.8"/>
<rect x="198.5" y="113" width="18" height="12" rx="1.5" fill="#b8b6ad" stroke="#6f6d67" stroke-width="0.8"/>
<rect x="236.0" y="113" width="18" height="12" rx="1.5" fill="#b8b6ad" stroke="#6f6d67" stroke-width="0.8"/>
<rect x="273.5" y="113" width="18" height="12" rx="1.5" fill="#b8b6ad" stroke="#6f6d67" stroke-width="0.8"/>
<line x1="95" y1="85" x2="320" y2="85" stroke="#33322e" stroke-width="2.6"/>
<rect x="123.5" y="73" width="18" height="12" rx="1.5" fill="#b8b6ad" stroke="#6f6d67" stroke-width="0.8"/>
<rect x="161.0" y="73" width="18" height="12" rx="1.5" fill="#b8b6ad" stroke="#6f6d67" stroke-width="0.8"/>
<rect x="198.5" y="73" width="18" height="12" rx="1.5" fill="#b8b6ad" stroke="#6f6d67" stroke-width="0.8"/>
<rect x="236.0" y="73" width="18" height="12" rx="1.5" fill="#b8b6ad" stroke="#6f6d67" stroke-width="0.8"/>
<rect x="273.5" y="73" width="18" height="12" rx="1.5" fill="#b8b6ad" stroke="#6f6d67" stroke-width="0.8"/>
<line x1="120" y1="439" x2="300" y2="439" stroke="#e34948" stroke-width="2.2"/>
<path d="M300 439 l-11 -5 l0 10 z" fill="#e34948"/>
<path d="M120 439 l11 -5 l0 10 z" fill="#e34948"/>
<text x="210" y="457" font-size="13" fill="#e34948" text-anchor="middle">sismo horizontal (UX)</text>
<text x="207" y="38" font-size="14.5" font-weight="600" fill="#33322e" text-anchor="middle">Marco de soporte de equipos</text>
<text x="207" y="56" font-size="11.5" fill="#6f6d67" text-anchor="middle">8 pisos · 720 tonf · sistema lateral rígido (T₁ = 0.53 s)</text>
<text x="352" y="165" font-size="11" fill="#6f6d67">columnas</text>
<text x="352" y="179" font-size="11" fill="#6f6d67">rígidas</text>
<rect x="352" y="276" width="14" height="10" rx="1.5" fill="#b8b6ad" stroke="#6f6d67" stroke-width="0.8"/>
<text x="370" y="285" font-size="11" fill="#6f6d67">equipo pesado</text>
<text x="370" y="299" font-size="11" fill="#6f6d67">(vigas flexibles)</text>
<text x="470" y="70" font-size="13" font-weight="600" fill="#33322e">Modo vertical — «rebote de equipo»</text>
<line x1="480" y1="120" x2="720" y2="120" stroke="#6f6d67" stroke-width="1" stroke-dasharray="3 3"/>
<path d="M480 120 Q600.0 162 720 120" fill="none" stroke="#b8b6ad" stroke-width="3"/>
<rect x="512.0" y="137.3" width="16" height="11" rx="1.5" fill="#b8b6ad" stroke="#6f6d67" stroke-width="0.8"/>
<rect x="552.0" y="151.3" width="16" height="11" rx="1.5" fill="#b8b6ad" stroke="#6f6d67" stroke-width="0.8"/>
<rect x="592.0" y="156.0" width="16" height="11" rx="1.5" fill="#b8b6ad" stroke="#6f6d67" stroke-width="0.8"/>
<rect x="632.0" y="151.3" width="16" height="11" rx="1.5" fill="#b8b6ad" stroke="#6f6d67" stroke-width="0.8"/>
<rect x="672.0" y="137.3" width="16" height="11" rx="1.5" fill="#b8b6ad" stroke="#6f6d67" stroke-width="0.8"/>
<path d="M480 120 l-7 12 l14 0 z" fill="none" stroke="#6f6d67" stroke-width="1.2"/>
<path d="M720 120 l-7 12 l14 0 z" fill="none" stroke="#6f6d67" stroke-width="1.2"/>
<text x="470" y="188" font-size="11.5" fill="#6f6d67">0 % de masa lateral · los <tspan font-weight="600" fill="#33322e">8 más bajos</tspan> de la</text>
<text x="470" y="204" font-size="11.5" fill="#6f6d67">estructura (T≈ 0.90 s). Eigen los calcula primero.</text>
<text x="470" y="270" font-size="13" font-weight="600" fill="#2a78d6">Modo lateral — sway (participa)</text>
<line x1="480" y1="410" x2="600" y2="410" stroke="#33322e" stroke-width="2"/>
<path d="M510 410 L556.0 300" stroke="#2a78d6" stroke-width="2.6" fill="none"/>
<path d="M580 410 L626.0 300" stroke="#2a78d6" stroke-width="2.6" fill="none"/>
<line x1="556.0" y1="300" x2="626.0" y2="300" stroke="#2a78d6" stroke-width="2"/>
<line x1="533.0" y1="355.0" x2="603.0" y2="355.0" stroke="#2a78d6" stroke-width="2"/>
<path d="M591.0 300 q22 -4 30 2" stroke="#2a78d6" stroke-width="1.4" fill="none" marker-end="url(#ah)"/>
<text x="620" y="330" font-size="11.5" fill="#6f6d67">85.6 % de masa UX en el</text>
<text x="620" y="346" font-size="11.5" fill="#6f6d67">1.er modo lateral… que es el</text>
<text x="620" y="362" font-size="11.5" fill="#33322e" font-weight="600">modo 9 de Eigen.</text>
<defs><marker id="ah" markerWidth="8" markerHeight="8" refX="6" refY="3" orient="auto"><path d="M0 0 L6 3 L0 6 z" fill="#2a78d6"/></marker></defs>
</svg>