<svg xmlns="http://www.w3.org/2000/svg" viewBox="0 0 560 320" font-family="Segoe UI, Arial, sans-serif">
<rect width="560" height="320" fill="#ffffff"/>
<text x="280" y="24" font-size="14.5" text-anchor="middle" fill="#222" font-weight="bold">Columna de esquina: axial de diseno (combinacion direccional 100/30)</text>
<text x="280" y="42" font-size="11" text-anchor="middle" fill="#666">valores en kN - Rukan y SAP2000 coinciden a 4 cifras</text>
<line x1="150.0" y1="54" x2="150.0" y2="280" stroke="#eee"/>
<text x="150.0" y="296" font-size="10" text-anchor="middle" fill="#777">0</text>
<line x1="252.6" y1="54" x2="252.6" y2="280" stroke="#eee"/>
<text x="252.6" y="296" font-size="10" text-anchor="middle" fill="#777">10</text>
<line x1="355.3" y1="54" x2="355.3" y2="280" stroke="#eee"/>
<text x="355.3" y="296" font-size="10" text-anchor="middle" fill="#777">20</text>
<line x1="457.9" y1="54" x2="457.9" y2="280" stroke="#eee"/>
<text x="457.9" y="296" font-size="10" text-anchor="middle" fill="#777">30</text>
<text x="142" y="80.6" font-size="11" text-anchor="end" fill="#333">Fz sismo X</text>
<rect x="150" y="62.6" width="179.8" height="28.0" rx="2" fill="#1a63a8"/>
<text x="335.8" y="80.6" font-size="10.5" fill="#333" font-weight="bold">17.52</text>
<text x="142" y="125.8" font-size="11" text-anchor="end" fill="#333">Fz sismo Y</text>
<rect x="150" y="107.8" width="299.6" height="28.0" rx="2" fill="#1a63a8"/>
<text x="455.6" y="125.8" font-size="10.5" fill="#333" font-weight="bold">29.19</text>
<text x="142" y="171.0" font-size="11" text-anchor="end" fill="#333">100%X+30%Y</text>
<rect x="150" y="153.0" width="269.7" height="28.0" rx="2" fill="#888"/>
<text x="425.7" y="171.0" font-size="10.5" fill="#333" font-weight="bold">26.28</text>
<text x="142" y="216.2" font-size="11" text-anchor="end" fill="#333">30%X+100%Y  (rige)</text>
<rect x="150" y="198.2" width="353.5" height="28.0" rx="2" fill="#b02a1a"/>
<text x="509.5" y="216.2" font-size="10.5" fill="#333" font-weight="bold">34.44</text>
<text x="142" y="261.4" font-size="11" text-anchor="end" fill="#333">SRSS direccional</text>
<rect x="150" y="243.4" width="349.4" height="28.0" rx="2" fill="#2f7d32"/>
<text x="505.4" y="261.4" font-size="10.5" fill="#333" font-weight="bold">34.04</text>
<line x1="150" y1="54" x2="150" y2="280" stroke="#333"/>
</svg>