<svg xmlns="http://www.w3.org/2000/svg" viewBox="415 28 465 360" font-family="Segoe UI, Arial, sans-serif">
  <!-- Derivado de nudo-simple.svg: SOLO el panel B (apernado), para la planilla del canvas.
       Mismas coordenadas que el original; el recorte lo hace el viewBox. -->
  <defs>
    <marker id="bl" viewBox="0 0 10 10" refX="9" refY="5" markerWidth="6.5" markerHeight="6.5" orient="auto">
      <path d="M0,0 L10,5 L0,10 z" fill="#1a63a8"/>
    </marker>
    <clipPath id="clipB"><polygon points="541.2,96 822.8,96 595.7,318 460,182.3"/></clipPath>
  </defs>
  <rect x="415" y="28" width="465" height="360" fill="#ffffff"/>
  <text x="647" y="44" font-size="11.5" fill="#2c7a4b" text-anchor="middle" font-weight="bold">APERNADO — junta de terreno (NCh2369 8.4.6)</text>
  <rect x="468" y="50" width="370" height="46" fill="#dcd8d0" stroke="#666" stroke-width="1.2"/>
  <text x="476" y="68" font-size="10" fill="#555">viga — ala inferior</text>
  <polygon points="541.2,96 822.8,96 595.7,318 460,182.3" fill="#eef2f7" stroke="#333" stroke-width="1.6"/>
  <line x1="682" y1="96" x2="461.4" y2="316.6" stroke="#888" stroke-width="0.8" stroke-dasharray="6 4"/>
  <circle cx="682" cy="96" r="4" fill="#c0392b"/>
  <polygon points="642.2,112.7 673.3,143.8 519.1,298 488,266.9" fill="#f3e9d8" stroke="#a07a2c" stroke-width="1.5"/>
  <polygon points="638.2,108.7 669.3,139.8 515.1,294 484,262.9" fill="#f3e9d8" stroke="#a07a2c" stroke-width="1.5"/>
  <polygon points="532.1,214.8 563.2,245.9 471.3,337.8 440.2,306.7" fill="#dfe5ec" fill-opacity="0.55" stroke="#333" stroke-width="1.6"/>
  <line x1="526.4" y1="220.5" x2="485" y2="261.9" stroke="#c0392b" stroke-width="2.6"/>
  <line x1="557.5" y1="251.6" x2="516.1" y2="293" stroke="#c0392b" stroke-width="2.6"/>
  <g clip-path="url(#clipB)">
  <polygon points="585.8,173.5 604.5,192.2 679.2,192.2 585.8,98.8" fill="none" stroke="#1a63a8" stroke-width="1.1" stroke-dasharray="5 3"/>
  <line x1="585.8" y1="98.8" x2="679.2" y2="192.2" stroke="#1a63a8" stroke-width="1.8" stroke-dasharray="5 3"/>
  </g>
  <polygon points="585.8,173.5 604.5,192.2 663.4,176.4 601.6,114.6" fill="#1a63a8" fill-opacity="0.20" stroke="#1a63a8" stroke-width="1.3"/>
  <line x1="601.6" y1="114.6" x2="663.4" y2="176.4" stroke="#1a63a8" stroke-width="3.4"/>
  <line x1="595.2" y1="182.8" x2="628.3" y2="149.7" stroke="#1a63a8" stroke-width="1.4" marker-end="url(#bl)"/>
  <circle cx="623.2" cy="136.2" r="4.4" fill="#ffffff" stroke="#2c7a4b" stroke-width="1.9"/>
  <circle cx="641.8" cy="154.8" r="4.4" fill="#ffffff" stroke="#2c7a4b" stroke-width="1.9"/>
  <circle cx="604.5" cy="154.8" r="4.4" fill="#ffffff" stroke="#2c7a4b" stroke-width="1.9"/>
  <circle cx="623.2" cy="173.5" r="4.4" fill="#ffffff" stroke="#2c7a4b" stroke-width="1.9"/>
  <circle cx="585.8" cy="173.5" r="4.4" fill="#ffffff" stroke="#2c7a4b" stroke-width="1.9"/>
  <circle cx="604.5" cy="192.2" r="4.4" fill="#ffffff" stroke="#2c7a4b" stroke-width="1.9"/>
  <line x1="639.5" y1="169.4" x2="686.8" y2="261.8" stroke="#1a63a8" stroke-width="0.8"/>
  <text x="690" y="268" font-size="9.8" fill="#1a63a8" font-weight="bold">entra con el gramil,</text>
  <text x="690" y="281" font-size="9.8" fill="#1a63a8" font-weight="bold">no en punta · acá las dos caben</text>
  <line x1="626.7" y1="177" x2="686.9" y2="299.7" stroke="#2c7a4b" stroke-width="0.8"/>
  <text x="690" y="306" font-size="9.8" fill="#2c7a4b" font-weight="bold">2 filas de 3 pernos, en terreno</text>
  <line x1="527.9" y1="289.7" x2="683.3" y2="337.9" stroke="#a07a2c" stroke-width="0.8"/>
  <text x="690" y="340" font-size="9.8" fill="#a07a2c" font-weight="bold">2 planchas a las caras del tubo</text>
  <text x="690" y="353" font-size="9.5" fill="#a07a2c">soldadas en taller → corte doble, sin ranura</text>
  <line x1="485.4" y1="323.7" x2="471.3" y2="349.8" stroke="#222" stroke-width="0.8"/>
  <text x="468" y="356" font-size="9.8" fill="#222" font-weight="bold">□ 150×150×8</text>
</svg>
