<svg xmlns="http://www.w3.org/2000/svg" viewBox="0 0 620 360" font-family="Segoe UI, Arial, sans-serif">
<rect width="620" height="360" fill="#ffffff"/>
<text x="310" y="26" font-size="14.5" text-anchor="middle" fill="#222" font-weight="bold">Espectro de diseño NCh2369 · zona 2, suelo C, R=5, xi=3%</text>
<line x1="64" y1="308.0" x2="600" y2="308.0" stroke="#eee"/><text x="56" y="312.0" font-size="11" text-anchor="end" fill="#555">0.0</text><line x1="64" y1="242.0" x2="600" y2="242.0" stroke="#eee"/><text x="56" y="246.0" font-size="11" text-anchor="end" fill="#555">0.1</text><line x1="64" y1="176.0" x2="600" y2="176.0" stroke="#eee"/><text x="56" y="180.0" font-size="11" text-anchor="end" fill="#555">0.2</text><line x1="64" y1="110.0" x2="600" y2="110.0" stroke="#eee"/><text x="56" y="114.0" font-size="11" text-anchor="end" fill="#555">0.3</text><line x1="64" y1="44.0" x2="600" y2="44.0" stroke="#eee"/><text x="56" y="48.0" font-size="11" text-anchor="end" fill="#555">0.4</text>
<line x1="64.0" y1="44" x2="64.0" y2="308" stroke="#eee"/><text x="64.0" y="324" font-size="11" text-anchor="middle" fill="#555">0.0</text><line x1="198.0" y1="44" x2="198.0" y2="308" stroke="#eee"/><text x="198.0" y="324" font-size="11" text-anchor="middle" fill="#555">0.5</text><line x1="332.0" y1="44" x2="332.0" y2="308" stroke="#eee"/><text x="332.0" y="324" font-size="11" text-anchor="middle" fill="#555">1.0</text><line x1="466.0" y1="44" x2="466.0" y2="308" stroke="#eee"/><text x="466.0" y="324" font-size="11" text-anchor="middle" fill="#555">1.5</text><line x1="600.0" y1="44" x2="600.0" y2="308" stroke="#eee"/><text x="600.0" y="324" font-size="11" text-anchor="middle" fill="#555">2.0</text>
<line x1="64" y1="44" x2="64" y2="308" stroke="#333"/>
<line x1="64" y1="308" x2="600" y2="308" stroke="#333"/>
<polyline points="64.0,70.0 66.7,84.4 69.4,93.7 72.0,100.1 74.7,104.3 77.4,107.0 80.1,108.5 82.8,109.2 85.4,109.3 88.1,108.9 90.8,108.3 93.5,107.4 96.2,106.4 98.8,105.4 101.5,104.5 104.2,103.7 106.9,103.0 109.6,102.5 112.2,102.2 114.9,102.2 117.6,102.4 120.3,102.9 123.0,103.8 125.6,104.9 128.3,106.3 131.0,108.0 133.7,110.0 136.4,112.2 139.0,114.7 141.7,112.7 144.4,111.0 147.1,109.7 149.8,108.7 152.4,108.1 155.1,107.7 157.8,107.7 160.5,108.0 163.2,108.6 165.8,109.4 168.5,110.4 171.2,111.6 173.9,113.1 176.6,114.7 179.2,116.4 181.9,118.3 184.6,120.3 187.3,122.5 190.0,124.7 192.6,127.0 195.3,129.3 198.0,131.7 200.7,134.2 203.4,136.7 206.0,139.2 208.7,141.7 211.4,144.2 214.1,146.8 216.8,149.3 219.4,151.8 222.1,154.3 224.8,156.7 227.5,159.2 230.2,161.6 232.8,164.0 235.5,166.4 238.2,168.7 240.9,171.0 243.6,173.2 246.2,175.5 248.9,177.6 251.6,179.8 254.3,181.9 257.0,184.0 259.6,186.0 262.3,188.0 265.0,189.9 267.7,191.8 270.4,193.7 273.0,195.5 275.7,197.3 278.4,199.1 281.1,200.8 283.8,202.5 286.4,204.1 289.1,205.7 291.8,207.3 294.5,208.9 297.2,210.4 299.8,211.8 302.5,213.3 305.2,214.7 307.9,216.1 310.6,217.4 313.2,218.8 315.9,220.1 318.6,221.3 321.3,222.6 324.0,223.8 326.6,225.0 329.3,226.2 332.0,227.3 334.7,228.4 337.4,229.5 340.0,230.6 342.7,231.6 345.4,232.7 348.1,233.7 350.8,234.7 353.4,235.6 356.1,236.6 358.8,237.5 361.5,238.4 364.2,239.3 366.8,240.2 369.5,241.0 372.2,241.9 374.9,242.7 377.6,243.5 380.2,244.3 382.9,245.1 385.6,245.8 388.3,246.6 391.0,247.3 393.6,248.0 396.3,248.7 399.0,249.4 401.7,250.1 404.4,250.8 407.0,251.4 409.7,252.1 412.4,252.7 415.1,253.3 417.8,253.9 420.4,254.5 423.1,255.1 425.8,255.7 428.5,256.2 431.2,256.8 433.8,257.3 436.5,257.9 439.2,258.4 441.9,258.9 444.6,259.4 447.2,259.9 449.9,260.4 452.6,260.9 455.3,261.4 458.0,261.9 460.6,262.3 463.3,262.8 466.0,263.2 468.7,263.7 471.4,264.1 474.0,264.5 476.7,265.0 479.4,265.4 482.1,265.8 484.8,266.2 487.4,266.6 490.1,267.0 492.8,267.4 495.5,267.7 498.2,268.1 500.8,268.5 503.5,268.8 506.2,269.2 508.9,269.5 511.6,269.9 514.2,270.2 516.9,270.5 519.6,270.9 522.3,271.2 525.0,271.5 527.6,271.8 530.3,272.1 533.0,272.5 535.7,272.8 538.4,273.1 541.0,273.4 543.7,273.6 546.4,273.9 549.1,274.2 551.8,274.5 554.4,274.8 557.1,275.0 559.8,275.3 562.5,275.6 565.2,275.8 567.8,276.1 570.5,276.3 573.2,276.6 575.9,276.8 578.6,277.1 581.2,277.3 583.9,277.6 586.6,277.8 589.3,278.0 592.0,278.3 594.6,278.5 597.3,278.7 600.0,278.9" fill="none" stroke="#1a63a8" stroke-width="2.5"/>
<line x1="205.0" y1="138.2" x2="205.0" y2="308" stroke="#b02a1a" stroke-width="1.5" stroke-dasharray="4 3"/>
<line x1="106.0" y1="103.2" x2="106.0" y2="308" stroke="#2f7d32" stroke-width="1.5" stroke-dasharray="4 3"/>
<circle cx="205.0" cy="138.2" r="4.5" fill="#b02a1a"/>
<circle cx="106.0" cy="103.2" r="4.5" fill="#2f7d32"/>
<text x="213.0" y="132.2" font-size="11.5" fill="#b02a1a" font-weight="bold">Modo 1: T1=0.526 s, Sa/g=0.257</text>
<text x="114.0" y="97.2" font-size="11.5" fill="#2f7d32" font-weight="bold">Modo 2: T2=0.157 s, Sa/g=0.310</text>
<text x="332" y="350" font-size="12" text-anchor="middle" fill="#333">Periodo T [s]</text>
<text x="16" y="176" font-size="12" text-anchor="middle" fill="#333" transform="rotate(-90 16 176)">Sa / g</text>
</svg>